<?xml version="1.0" encoding="utf-8"?>
<!-- Generator: Adobe Illustrator 28.0.0, SVG Export Plug-In . SVG Version: 6.00 Build 0)  -->
<svg version="1.1" id="圖層_1" xmlns="http://www.w3.org/2000/svg" xmlns:xlink="http://www.w3.org/1999/xlink" x="0px" y="0px"
	 viewBox="0 0 566.93 283.46" style="enable-background:new 0 0 566.93 283.46;" xml:space="preserve">
<g>
	<path d="M54.14,121.85c-0.21,0.72-0.31,1.13-0.31,1.34c0,0.62-0.1,2.77-0.1,6.58c-0.1,3.9-0.1,6.16-0.1,6.99
		c0,9.25-2.36,17.67-6.88,25.38c-5.34,8.94-11.92,13.36-19.73,13.36c-5.24,0-9.97-2.36-14.18-7.09c-5.14-5.55-7.6-14.49-7.6-26.71
		c0-2.88,0.21-7.19,0.62-12.94c0.31-5.75,0.51-10.07,0.51-12.94c0-0.62-0.1-1.75-0.1-3.39c-0.21-1.64-0.21-2.77-0.21-3.29
		c0-1.64,0.92-2.57,2.88-2.57c2.57,0,3.9,2.77,3.9,8.32c0,1.54-0.31,5.86-0.72,13.05c-0.51,7.09-0.72,12.43-0.72,15.92
		c0,7.81,1.34,13.87,4.21,18.18c3.08,4.93,6.88,7.4,11.61,7.4c5.55,0,10.48-3.7,14.59-11.1c3.9-6.99,5.96-14.9,5.96-23.73
		c0-10.48-1.03-20.65-2.98-30.31l-0.92-4.73c0-0.82,0.41-1.54,1.13-2.16c0.62-0.62,1.34-1.03,2.16-1.03c1.95,0,2.98,0.92,3.08,2.67
		c0.21,0.51,0.41,1.23,0.72,2.26c2.26,8.84,3.39,15,3.39,18.6C54.35,120.62,54.25,121.24,54.14,121.85z"/>
	<path d="M97.6,139.83c-1.85,0.82-3.18,1.23-4.21,1.23c-0.21,0-0.82-0.21-2.05-0.62c-8.84,4.11-14.18,12.64-15.82,25.79
		c-0.92,6.88-2.05,10.38-3.39,10.38c-1.13,0-2.06-0.72-2.88-1.95c-0.82-1.23-1.23-2.36-1.23-3.8c0.21-1.03,0.62-2.77,1.13-5.34
		c0.51-3.08,0.82-5.96,0.82-8.63c0-2.98-0.41-5.96-1.03-8.94c-1.23-1.23-1.85-2.67-2.05-4.11c-0.51-2.77-0.72-5.03-0.72-6.68
		c0-0.62,0.21-1.34,0.72-2.16c0.41-0.82,0.82-1.23,1.34-1.23c2.26,0,3.8,1.95,4.62,5.65c0.82,3.9,1.44,6.78,1.85,8.84
		c2.47-4.62,5.65-8.53,9.76-11.71c3.9-3.08,7.91-4.62,12.02-4.62c1.03,0,2.05,0.51,3.08,1.54c0.82,1.03,1.23,2.16,1.34,3.29
		C100.89,137.88,99.76,138.91,97.6,139.83z"/>
	<path d="M140.03,161.61c-3.29,4.01-7.4,7.4-12.53,10.27c-2.77,1.54-5.86,2.88-9.14,3.9c-3.49,1.03-5.96,1.64-7.6,1.64
		c-2.57,0-4.11-1.13-4.73-3.39c0.21-1.23,1.13-2.36,2.88-3.39c-0.41-4.52-0.62-9.25-0.62-14.18c0-17.57,1.64-34.93,5.14-52.09
		c1.03-5.24,2.57-7.91,4.52-7.91c2.26,0,3.39,1.54,3.39,4.52c0,1.23-0.31,3.29-0.82,5.96c-0.51,3.08-1.03,5.24-1.44,6.27
		c-0.51,1.23-1.23,2.05-2.05,2.47c-1.44,8.53-2.36,20.65-2.98,36.47c8.01-9.97,14.79-15,20.55-15c3.29,0,5.96,1.13,7.81,3.39
		c1.85,2.26,2.77,5.14,2.77,8.63C145.17,153.19,143.43,157.3,140.03,161.61z M134.08,143.84c-1.85,0-4.31,1.23-7.19,3.6
		c-4.62,3.7-8.22,8.01-10.89,13.15c-0.82,1.64-1.23,3.19-1.23,4.52c0,1.44,0,3.19,0.21,5.24c5.34-1.23,10.48-3.9,15.62-7.81
		c5.75-4.42,8.73-8.83,8.73-13.25C139.32,145.69,137.57,143.84,134.08,143.84z"/>
	<path d="M189.45,150.72c-1.54,4.31-2.26,8.94-2.26,13.66c0,1.75,0.1,3.49,0.51,5.14c0.62,3.08,1.03,4.62,1.03,4.83
		c0,1.95-1.13,2.98-3.29,2.98c-2.05,0-3.18-1.75-3.49-5.03c-0.21-1.75-0.51-4.52-0.92-8.32c-5.65,6.78-11.1,10.17-16.34,10.17
		c-2.77,0-5.14-1.23-7.09-3.9c-1.95-2.26-2.88-4.93-2.88-7.91c0-4.73,2.05-9.66,6.37-15c0.82-1.03,2.36-2.67,4.52-4.73
		c6.78-6.16,12.43-9.25,17.16-9.25c1.03,0,2.16,0.51,3.29,1.34c1.03,0.92,1.64,1.95,1.64,3.08c0,0.21-0.1,0.72-0.31,1.44
		c0.82,2.05,1.23,4.42,1.23,6.99c0.82,1.03,1.23,1.95,1.23,2.67C189.86,149.28,189.66,149.9,189.45,150.72z M180.1,140.55
		c-1.34,0-3.49,1.13-6.37,3.29c-2.67,1.95-4.83,3.9-6.47,5.86c-4.31,4.83-6.37,8.94-6.37,12.33c0,3.6,1.34,5.34,4.21,5.34
		c3.9,0,7.71-2.36,11.61-7.29c3.9-4.93,5.96-9.55,5.96-14.07C182.67,142.4,181.75,140.55,180.1,140.55z"/>
	<path d="M235.69,159.87c-0.41,3.6-0.82,8.22-1.44,13.77c-0.21,1.03-0.62,1.64-1.44,1.64c-1.13,0-2.16-0.51-2.98-1.44
		c-0.82-1.03-1.23-2.05-1.23-3.19c0.1-1.44,0.31-3.7,0.72-6.58l1.75-17.36c-9.76,6.99-16.54,14.18-20.24,21.58
		c-0.62,1.44-1.13,2.77-1.75,4.11c-0.72,1.44-1.23,2.26-1.64,2.26c-2.05,0-3.39-1.23-4.21-3.7c-1.23-3.7-1.85-8.42-1.85-14.38
		c0-6.27,1.03-14.69,3.29-25.27c0.21-1.03,0.62-1.64,1.44-1.64c1.13,0,2.16,0.62,3.19,1.64c0.82,1.13,1.23,2.36,1.23,3.6
		c-0.21,1.03-0.51,2.16-0.82,3.6c-1.64,7.09-2.36,14.79-2.36,23.12c8.12-10.58,16.34-18.39,24.76-23.42
		c1.23,0.1,2.26,0.62,3.19,1.44c0.92,1.03,1.44,2.05,1.44,3.08C236.71,147.33,236.3,153.09,235.69,159.87z"/>
	<path d="M335.76,142.71c-2.47,0.72-5.45,1.13-8.94,1.34c0.21,0.62,0.31,1.44,0.31,2.26c0,9.45,1.03,16.95,3.29,22.5
		c0.92,2.57,1.44,4.01,1.44,4.21c0,2.05-0.92,3.29-2.67,3.7c-1.44-0.31-2.67-1.13-3.49-2.47c-0.82-1.13-1.54-3.39-2.36-6.88
		c-5.14,6.27-10.89,9.45-17.26,9.45c-6.78,0-12.33-2.47-16.75-7.29c-4.62-5.14-6.88-11.81-6.88-20.03
		c0-12.94,4.42-25.17,13.46-36.57c9.35-12.02,20.14-18.08,32.26-18.08c2.67,0,4.01,1.13,4.01,3.18c0,2.26-1.34,3.39-3.9,3.39
		c-8.22,0-15.82,3.49-22.81,10.48c-5.03,5.03-9.04,10.58-11.92,16.54c-3.29,6.78-4.93,13.46-4.93,20.03c0,6.17,1.33,11.2,4.11,15.1
		c3.08,4.52,7.6,6.78,13.46,6.78c4.52,0,8.32-1.75,11.4-5.45c2.16-2.57,3.29-6.58,3.29-12.02c0-0.41-0.1-1.44-0.1-2.98
		c-0.21-1.54-0.21-2.57-0.21-3.08c0-0.92,0.41-1.85,1.44-2.67c-2.67,0-4.93-0.31-6.78-0.92c-1.75-0.51-2.57-1.54-2.57-3.08
		c0-2.16,0.92-3.29,2.88-3.29c0.51,0,1.23,0.1,2.16,0.31c1.44,0.41,3.39,0.62,5.75,0.62c2.98,0,7.6-0.51,13.87-1.75
		c1.85,0,2.88,1.03,2.88,3.08C340.17,140.86,338.63,142.09,335.76,142.71z"/>
	<path d="M382.3,150.72c-1.54,4.31-2.26,8.94-2.26,13.66c0,1.75,0.1,3.49,0.51,5.14c0.62,3.08,1.03,4.62,1.03,4.83
		c0,1.95-1.13,2.98-3.29,2.98c-2.05,0-3.18-1.75-3.49-5.03c-0.21-1.75-0.51-4.52-0.92-8.32c-5.65,6.78-11.1,10.17-16.33,10.17
		c-2.77,0-5.14-1.23-7.09-3.9c-1.95-2.26-2.88-4.93-2.88-7.91c0-4.73,2.05-9.66,6.37-15c0.82-1.03,2.36-2.67,4.52-4.73
		c6.78-6.16,12.43-9.25,17.16-9.25c1.03,0,2.16,0.51,3.29,1.34c1.03,0.92,1.64,1.95,1.64,3.08c0,0.21-0.1,0.72-0.31,1.44
		c0.82,2.05,1.23,4.42,1.23,6.99c0.82,1.03,1.23,1.95,1.23,2.67C382.71,149.28,382.5,149.9,382.3,150.72z M372.95,140.55
		c-1.34,0-3.49,1.13-6.37,3.29c-2.67,1.95-4.83,3.9-6.47,5.86c-4.31,4.83-6.37,8.94-6.37,12.33c0,3.6,1.33,5.34,4.21,5.34
		c3.9,0,7.71-2.36,11.61-7.29c3.9-4.93,5.96-9.55,5.96-14.07C375.52,142.4,374.59,140.55,372.95,140.55z"/>
	<path d="M425.96,139.83c-1.85,0.82-3.18,1.23-4.21,1.23c-0.21,0-0.82-0.21-2.05-0.62c-8.84,4.11-14.18,12.64-15.82,25.79
		c-0.92,6.88-2.05,10.38-3.39,10.38c-1.13,0-2.05-0.72-2.88-1.95c-0.82-1.23-1.23-2.36-1.23-3.8c0.21-1.03,0.62-2.77,1.13-5.34
		c0.51-3.08,0.82-5.96,0.82-8.63c0-2.98-0.41-5.96-1.03-8.94c-1.23-1.23-1.85-2.67-2.05-4.11c-0.51-2.77-0.72-5.03-0.72-6.68
		c0-0.62,0.21-1.34,0.72-2.16c0.41-0.82,0.82-1.23,1.34-1.23c2.26,0,3.8,1.95,4.62,5.65c0.82,3.9,1.44,6.78,1.85,8.84
		c2.47-4.62,5.65-8.53,9.76-11.71c3.9-3.08,7.91-4.62,12.02-4.62c1.03,0,2.05,0.51,3.08,1.54c0.82,1.03,1.23,2.16,1.34,3.29
		C429.25,137.88,428.12,138.91,425.96,139.83z"/>
	<path d="M468.29,107.06c-0.82,4.52-1.23,7.91-1.33,10.17c-0.21,1.03-0.21,2.47-0.21,4.31c0,2.26-0.62,4.21-1.85,5.75
		c-0.92,11.61-1.34,19.31-1.34,23.01c0,9.35,0.82,18.29,2.47,26.92c0.41,2.16,0.62,3.8,0.62,5.03c0,0.72-0.31,1.34-0.92,1.95
		c-0.72,0.62-1.44,1.03-2.05,1.03c-1.64,0-2.67-1.54-3.08-4.42c-1.03-5.75-1.75-11.81-2.16-18.39c-1.64,3.39-3.9,6.37-6.58,8.94
		c-3.29,3.18-6.47,4.83-9.55,4.83c-3.39,0-5.96-1.13-7.71-3.18c-1.85-2.05-2.67-4.83-2.67-8.32c0-5.55,2.36-11.61,7.09-18.29
		c4.73-6.57,8.94-9.97,12.84-9.97c2.05,0,4.21,1.34,6.47,3.8c1.33-18.9,3.18-32.67,5.44-41.2c0.41-1.64,1.34-2.57,2.77-2.57
		c1.75,0,2.67,1.03,2.67,3.08C469.22,100.38,468.91,102.85,468.29,107.06z M453.09,143.53c-0.82-0.1-1.23-0.21-1.44-0.21
		c-2.36,0-5.34,2.57-8.84,7.6c-3.7,5.24-5.45,9.76-5.45,13.56c0,3.39,1.23,5.03,3.9,5.03c3.39,0,6.78-2.05,10.07-6.16
		c2.98-3.7,5.14-8.12,6.47-13.25C455.45,148.67,453.91,146.51,453.09,143.53z"/>
	<path d="M508.16,176.2c-8.01,0-13.77-3.8-17.26-11.4c-0.82,0.21-1.85,0.31-2.88,0.31c-3.6,0-6.47-0.62-8.53-1.95
		c-2.57-1.44-3.8-2.98-3.8-4.62c0-2.26,1.03-3.39,3.08-3.39c0.31,0,1.33,0.62,3.08,1.85c1.75,1.13,3.49,1.64,5.24,1.64
		c0.62,0,1.34,0,1.95-0.1c-0.31-1.64-0.41-3.18-0.41-4.73c0-4.93,1.23-9.76,3.7-14.38c2.77-5.24,6.27-7.91,10.48-7.91
		c2.57,0,5.14,1.44,7.81,4.11c1.85,2.05,2.88,4.42,2.88,7.09c0,4.11-1.75,8.01-5.14,11.92c-3.08,3.6-6.88,6.37-11.4,8.32
		c2.05,4.32,5.24,6.47,9.76,6.47c0.92,0,2.36-0.1,4.31-0.51c1.85-0.21,2.98-0.31,3.49-0.31c0.82,0,1.44,0.41,2.05,1.13
		c0.62,0.82,0.92,1.54,0.92,2.36C517.51,174.76,514.32,176.2,508.16,176.2z M505.79,139.83c-1.13-0.92-2.26-1.44-3.39-1.44
		c-2.05,0-3.8,1.64-5.24,4.73s-2.16,6.37-2.16,9.66c0,1.23,0.1,2.67,0.31,4.11c3.29-1.44,6.16-3.39,8.53-5.96
		c2.36-2.36,3.6-4.93,3.6-7.71C507.44,141.99,506.82,140.86,505.79,139.83z"/>
	<path d="M560.56,159.87c-0.41,3.6-0.82,8.22-1.44,13.77c-0.21,1.03-0.62,1.64-1.44,1.64c-1.13,0-2.16-0.51-2.98-1.44
		c-0.82-1.03-1.23-2.05-1.23-3.19c0.1-1.44,0.31-3.7,0.72-6.58l1.75-17.36c-9.76,6.99-16.54,14.18-20.24,21.58
		c-0.62,1.44-1.13,2.77-1.75,4.11c-0.72,1.44-1.23,2.26-1.64,2.26c-2.05,0-3.39-1.23-4.21-3.7c-1.23-3.7-1.85-8.42-1.85-14.38
		c0-6.27,1.03-14.69,3.29-25.27c0.21-1.03,0.62-1.64,1.44-1.64c1.13,0,2.16,0.62,3.18,1.64c0.82,1.13,1.23,2.36,1.23,3.6
		c-0.21,1.03-0.51,2.16-0.82,3.6c-1.64,7.09-2.36,14.79-2.36,23.12c8.12-10.58,16.33-18.39,24.76-23.42
		c1.23,0.1,2.26,0.62,3.18,1.44c0.92,1.03,1.44,2.05,1.44,3.08C561.58,147.33,561.17,153.09,560.56,159.87z"/>
</g>
</svg>
