<?xml version="1.0" encoding="utf-8"?>
<!-- Generator: Adobe Illustrator 28.0.0, SVG Export Plug-In . SVG Version: 6.00 Build 0)  -->
<svg version="1.1" id="圖層_1" xmlns="http://www.w3.org/2000/svg" xmlns:xlink="http://www.w3.org/1999/xlink" x="0px" y="0px"
	 viewBox="0 0 566.93 99.21" style="enable-background:new 0 0 566.93 99.21;" xml:space="preserve">
<g>
	<path d="M49.83,31.08c-0.21,0.73-0.31,1.15-0.31,1.36c0,0.63-0.1,2.83-0.1,6.7c-0.1,3.98-0.1,6.28-0.1,7.12
		c0,9.42-2.41,18.01-7.01,25.86c-5.44,9.11-12.14,13.61-20.1,13.61c-5.34,0-10.16-2.41-14.45-7.22C2.51,72.85,0,63.74,0,51.28
		c0-2.93,0.21-7.33,0.63-13.19c0.31-5.86,0.52-10.26,0.52-13.19c0-0.63-0.1-1.78-0.1-3.46c-0.21-1.67-0.21-2.83-0.21-3.35
		c0-1.67,0.94-2.62,2.93-2.62c2.62,0,3.98,2.83,3.98,8.48c0,1.57-0.31,5.97-0.73,13.3c-0.52,7.22-0.73,12.67-0.73,16.23
		c0,7.96,1.36,14.13,4.29,18.53c3.14,5.03,7.01,7.54,11.83,7.54c5.65,0,10.68-3.77,14.87-11.31c3.98-7.12,6.07-15.18,6.07-24.18
		c0-10.68-1.05-21.04-3.04-30.88l-0.94-4.82c0-0.84,0.42-1.57,1.15-2.2c0.63-0.63,1.36-1.05,2.2-1.05c1.99,0,3.04,0.94,3.14,2.72
		c0.21,0.52,0.42,1.26,0.73,2.3c2.3,9,3.46,15.29,3.46,18.95C50.04,29.82,49.94,30.45,49.83,31.08z"/>
	<path d="M94.12,49.4c-1.88,0.84-3.25,1.26-4.29,1.26c-0.21,0-0.84-0.21-2.09-0.63c-9,4.19-14.45,12.88-16.12,26.28
		c-0.94,7.01-2.09,10.57-3.45,10.57c-1.15,0-2.09-0.73-2.93-1.99c-0.84-1.26-1.26-2.41-1.26-3.87c0.21-1.05,0.63-2.83,1.15-5.44
		c0.52-3.14,0.84-6.07,0.84-8.79c0-3.04-0.42-6.07-1.05-9.11c-1.26-1.26-1.88-2.72-2.09-4.19c-0.52-2.83-0.73-5.13-0.73-6.8
		c0-0.63,0.21-1.36,0.73-2.2c0.42-0.84,0.84-1.26,1.36-1.26c2.3,0,3.87,1.99,4.71,5.76c0.84,3.98,1.47,6.91,1.88,9
		c2.51-4.71,5.76-8.69,9.95-11.93c3.98-3.14,8.06-4.71,12.25-4.71c1.05,0,2.09,0.52,3.14,1.57c0.84,1.05,1.26,2.2,1.36,3.35
		C97.47,47.41,96.32,48.45,94.12,49.4z"/>
	<path d="M137.36,71.59c-3.35,4.08-7.54,7.54-12.77,10.47c-2.83,1.57-5.97,2.93-9.32,3.98c-3.56,1.05-6.07,1.68-7.75,1.68
		c-2.62,0-4.19-1.15-4.82-3.46c0.21-1.26,1.15-2.41,2.93-3.46c-0.42-4.61-0.63-9.42-0.63-14.45c0-17.9,1.67-35.6,5.23-53.08
		c1.05-5.34,2.62-8.06,4.61-8.06c2.3,0,3.45,1.57,3.45,4.61c0,1.26-0.31,3.35-0.84,6.07c-0.52,3.14-1.05,5.34-1.47,6.39
		c-0.52,1.26-1.26,2.09-2.09,2.51c-1.47,8.69-2.41,21.04-3.04,37.17c8.17-10.16,15.08-15.29,20.94-15.29c3.35,0,6.07,1.15,7.96,3.46
		c1.88,2.3,2.83,5.23,2.83,8.79C142.6,63.01,140.82,67.19,137.36,71.59z M131.29,53.48c-1.88,0-4.4,1.26-7.33,3.66
		c-4.71,3.77-8.38,8.17-11.1,13.4c-0.84,1.68-1.26,3.25-1.26,4.61c0,1.47,0,3.25,0.21,5.34c5.44-1.26,10.68-3.98,15.91-7.96
		c5.86-4.5,8.9-9,8.9-13.51C136.63,55.36,134.85,53.48,131.29,53.48z"/>
	<path d="M187.72,60.49c-1.57,4.4-2.3,9.11-2.3,13.92c0,1.78,0.1,3.56,0.52,5.23c0.63,3.14,1.05,4.71,1.05,4.92
		c0,1.99-1.15,3.04-3.35,3.04c-2.09,0-3.25-1.78-3.56-5.13c-0.21-1.78-0.52-4.61-0.94-8.48c-5.76,6.91-11.31,10.36-16.65,10.36
		c-2.83,0-5.23-1.26-7.22-3.98c-1.99-2.3-2.93-5.03-2.93-8.06c0-4.82,2.09-9.84,6.49-15.29c0.84-1.05,2.41-2.72,4.61-4.82
		c6.91-6.28,12.67-9.42,17.48-9.42c1.05,0,2.2,0.52,3.35,1.36c1.05,0.94,1.67,1.99,1.67,3.14c0,0.21-0.1,0.73-0.31,1.47
		c0.84,2.09,1.26,4.5,1.26,7.12c0.84,1.05,1.26,1.99,1.26,2.72C188.14,59.03,187.93,59.66,187.72,60.49z M178.19,50.13
		c-1.36,0-3.56,1.15-6.49,3.35c-2.72,1.99-4.92,3.98-6.6,5.97c-4.4,4.92-6.49,9.11-6.49,12.56c0,3.66,1.36,5.44,4.29,5.44
		c3.98,0,7.85-2.41,11.83-7.43c3.98-5.02,6.07-9.74,6.07-14.34C180.81,52.01,179.87,50.13,178.19,50.13z"/>
	<path d="M234.83,69.81c-0.42,3.66-0.84,8.38-1.47,14.03c-0.21,1.05-0.63,1.67-1.47,1.67c-1.15,0-2.2-0.52-3.04-1.46
		c-0.84-1.05-1.26-2.09-1.26-3.25c0.1-1.47,0.31-3.77,0.73-6.7l1.78-17.69c-9.95,7.12-16.86,14.45-20.62,21.99
		c-0.63,1.46-1.15,2.83-1.78,4.19c-0.73,1.47-1.26,2.3-1.67,2.3c-2.09,0-3.46-1.26-4.29-3.77c-1.26-3.77-1.88-8.59-1.88-14.66
		c0-6.39,1.05-14.97,3.35-25.75c0.21-1.05,0.63-1.67,1.47-1.67c1.15,0,2.2,0.63,3.25,1.67c0.84,1.15,1.26,2.41,1.26,3.66
		c-0.21,1.05-0.52,2.2-0.84,3.66c-1.68,7.22-2.41,15.08-2.41,23.56c8.27-10.78,16.65-18.74,25.23-23.87c1.26,0.1,2.3,0.63,3.25,1.47
		c0.94,1.05,1.47,2.09,1.47,3.14C235.88,57.04,235.46,62.9,234.83,69.81z"/>
	<path d="M336.81,52.33c-2.51,0.73-5.55,1.15-9.11,1.36c0.21,0.63,0.31,1.47,0.31,2.3c0,9.63,1.05,17.27,3.35,22.93
		c0.94,2.62,1.47,4.08,1.47,4.29c0,2.09-0.94,3.35-2.72,3.77c-1.47-0.31-2.72-1.15-3.56-2.51c-0.84-1.15-1.57-3.45-2.41-7.01
		c-5.23,6.39-11.1,9.63-17.59,9.63c-6.91,0-12.56-2.51-17.06-7.43c-4.71-5.23-7.01-12.04-7.01-20.42c0-13.19,4.5-25.65,13.71-37.27
		c9.53-12.25,20.52-18.43,32.87-18.43c2.72,0,4.08,1.15,4.08,3.25c0,2.3-1.36,3.46-3.98,3.46c-8.38,0-16.12,3.56-23.24,10.68
		c-5.13,5.13-9.21,10.78-12.14,16.86c-3.35,6.91-5.02,13.71-5.02,20.41c0,6.28,1.36,11.41,4.19,15.39
		c3.14,4.61,7.75,6.91,13.71,6.91c4.61,0,8.48-1.78,11.62-5.55c2.2-2.62,3.35-6.7,3.35-12.25c0-0.42-0.1-1.47-0.1-3.04
		c-0.21-1.57-0.21-2.62-0.21-3.14c0-0.94,0.42-1.88,1.47-2.72c-2.72,0-5.03-0.31-6.91-0.94c-1.78-0.52-2.62-1.57-2.62-3.14
		c0-2.2,0.94-3.35,2.93-3.35c0.52,0,1.26,0.1,2.2,0.31c1.47,0.42,3.46,0.63,5.86,0.63c3.04,0,7.75-0.52,14.13-1.78
		c1.88,0,2.93,1.05,2.93,3.14C341.31,50.44,339.74,51.7,336.81,52.33z"/>
	<path d="M384.23,60.49c-1.57,4.4-2.3,9.11-2.3,13.92c0,1.78,0.1,3.56,0.52,5.23c0.63,3.14,1.05,4.71,1.05,4.92
		c0,1.99-1.15,3.04-3.35,3.04c-2.09,0-3.25-1.78-3.56-5.13c-0.21-1.78-0.52-4.61-0.94-8.48c-5.76,6.91-11.31,10.36-16.65,10.36
		c-2.83,0-5.23-1.26-7.22-3.98c-1.99-2.3-2.93-5.03-2.93-8.06c0-4.82,2.09-9.84,6.49-15.29c0.84-1.05,2.41-2.72,4.61-4.82
		c6.91-6.28,12.67-9.42,17.48-9.42c1.05,0,2.2,0.52,3.35,1.36c1.05,0.94,1.68,1.99,1.68,3.14c0,0.21-0.11,0.73-0.31,1.47
		c0.84,2.09,1.26,4.5,1.26,7.12c0.84,1.05,1.26,1.99,1.26,2.72C384.65,59.03,384.44,59.66,384.23,60.49z M374.71,50.13
		c-1.36,0-3.56,1.15-6.49,3.35c-2.72,1.99-4.92,3.98-6.6,5.97c-4.4,4.92-6.49,9.11-6.49,12.56c0,3.66,1.36,5.44,4.29,5.44
		c3.98,0,7.85-2.41,11.83-7.43c3.98-5.02,6.07-9.74,6.07-14.34C377.33,52.01,376.38,50.13,374.71,50.13z"/>
	<path d="M428.73,49.4c-1.88,0.84-3.25,1.26-4.29,1.26c-0.21,0-0.84-0.21-2.09-0.63c-9,4.19-14.45,12.88-16.12,26.28
		c-0.94,7.01-2.09,10.57-3.45,10.57c-1.15,0-2.09-0.73-2.93-1.99c-0.84-1.26-1.26-2.41-1.26-3.87c0.21-1.05,0.63-2.83,1.15-5.44
		c0.52-3.14,0.84-6.07,0.84-8.79c0-3.04-0.42-6.07-1.05-9.11c-1.26-1.26-1.88-2.72-2.09-4.19c-0.52-2.83-0.73-5.13-0.73-6.8
		c0-0.63,0.21-1.36,0.73-2.2c0.42-0.84,0.84-1.26,1.36-1.26c2.3,0,3.87,1.99,4.71,5.76c0.84,3.98,1.47,6.91,1.88,9
		c2.51-4.71,5.76-8.69,9.95-11.93c3.98-3.14,8.06-4.71,12.25-4.71c1.05,0,2.09,0.52,3.14,1.57c0.84,1.05,1.26,2.2,1.36,3.35
		C432.08,47.41,430.93,48.45,428.73,49.4z"/>
	<path d="M471.86,16c-0.84,4.61-1.26,8.06-1.36,10.36c-0.21,1.05-0.21,2.51-0.21,4.4c0,2.3-0.63,4.29-1.88,5.86
		c-0.94,11.83-1.36,19.68-1.36,23.45c0,9.53,0.84,18.64,2.51,27.43c0.42,2.2,0.63,3.87,0.63,5.13c0,0.73-0.31,1.36-0.94,1.99
		c-0.73,0.63-1.46,1.05-2.09,1.05c-1.67,0-2.72-1.57-3.14-4.5c-1.05-5.86-1.78-12.04-2.2-18.74c-1.67,3.46-3.98,6.49-6.7,9.11
		c-3.35,3.25-6.6,4.92-9.74,4.92c-3.46,0-6.07-1.15-7.85-3.25c-1.88-2.09-2.72-4.92-2.72-8.48c0-5.65,2.41-11.83,7.22-18.64
		c4.82-6.7,9.11-10.15,13.09-10.15c2.09,0,4.29,1.36,6.6,3.87c1.36-19.26,3.25-33.29,5.55-41.98c0.42-1.68,1.36-2.62,2.83-2.62
		c1.78,0,2.72,1.05,2.72,3.14C472.81,9.2,472.49,11.71,471.86,16z M456.37,53.17c-0.84-0.11-1.26-0.21-1.46-0.21
		c-2.41,0-5.44,2.62-9,7.75c-3.77,5.34-5.55,9.95-5.55,13.82c0,3.46,1.26,5.13,3.98,5.13c3.46,0,6.91-2.09,10.26-6.28
		c3.04-3.77,5.23-8.27,6.6-13.51C458.78,58.4,457.21,56.2,456.37,53.17z"/>
	<path d="M512.49,86.46c-8.17,0-14.03-3.87-17.59-11.62c-0.84,0.21-1.88,0.31-2.93,0.31c-3.66,0-6.6-0.63-8.69-1.99
		c-2.62-1.47-3.87-3.04-3.87-4.71c0-2.3,1.05-3.45,3.14-3.45c0.31,0,1.36,0.63,3.14,1.88c1.78,1.15,3.56,1.68,5.34,1.68
		c0.63,0,1.36,0,1.99-0.11c-0.31-1.67-0.42-3.25-0.42-4.82c0-5.03,1.26-9.95,3.77-14.66c2.83-5.34,6.39-8.06,10.68-8.06
		c2.62,0,5.23,1.47,7.96,4.19c1.88,2.09,2.93,4.5,2.93,7.22c0,4.19-1.78,8.17-5.23,12.14c-3.14,3.66-7.01,6.49-11.62,8.48
		c2.09,4.4,5.34,6.6,9.95,6.6c0.94,0,2.41-0.1,4.4-0.52c1.88-0.21,3.04-0.31,3.56-0.31c0.84,0,1.47,0.42,2.09,1.15
		c0.63,0.84,0.94,1.57,0.94,2.41C522.01,84.99,518.77,86.46,512.49,86.46z M510.08,49.4c-1.15-0.94-2.3-1.47-3.46-1.47
		c-2.09,0-3.87,1.68-5.34,4.82c-1.47,3.14-2.2,6.49-2.2,9.84c0,1.26,0.1,2.72,0.31,4.19c3.35-1.47,6.28-3.46,8.69-6.07
		c2.41-2.41,3.66-5.02,3.66-7.85C511.75,51.6,511.13,50.44,510.08,49.4z"/>
	<path d="M565.88,69.81c-0.42,3.66-0.84,8.38-1.47,14.03c-0.21,1.05-0.63,1.67-1.46,1.67c-1.15,0-2.2-0.52-3.04-1.46
		c-0.84-1.05-1.26-2.09-1.26-3.25c0.1-1.47,0.31-3.77,0.73-6.7l1.78-17.69c-9.95,7.12-16.86,14.45-20.62,21.99
		c-0.63,1.46-1.15,2.83-1.78,4.19c-0.73,1.47-1.26,2.3-1.68,2.3c-2.09,0-3.45-1.26-4.29-3.77c-1.26-3.77-1.88-8.59-1.88-14.66
		c0-6.39,1.05-14.97,3.35-25.75c0.21-1.05,0.63-1.67,1.47-1.67c1.15,0,2.2,0.63,3.25,1.67c0.84,1.15,1.26,2.41,1.26,3.66
		c-0.21,1.05-0.52,2.2-0.84,3.66c-1.67,7.22-2.41,15.08-2.41,23.56c8.27-10.78,16.65-18.74,25.23-23.87c1.26,0.1,2.3,0.63,3.25,1.47
		c0.94,1.05,1.47,2.09,1.47,3.14C566.93,57.04,566.51,62.9,565.88,69.81z"/>
</g>
</svg>
